# xmcd
#
# Track frame offsets:
#	150
#	14719
#	31408
#	48822
#	62631
#	78436
#	94267
#	111420
#	128054
#	143420
#	158696
#	170908
#	187305
#	197137
#	211138
#	225272
#	239308
#	252408
#
# Disc length: 3535 seconds
#
# Revision: 0
# Processed by: cddbd v1.5.2PL0 Copyright (c) Steve Scherf et al.
# Submitted via: EasyCDDAExtractor 15.2.5.1
#
DISCID=f80dcd12
DTITLE=Ray - Só Modão
DYEAR=2012
DGENRE=sertanejo
TTITLE0=Me Liga
TTITLE1=Ave Ferida
TTITLE2=Nota de Jornal
TTITLE3=Drga de Vida
TTITLE4=Essa Noite Foi Maravilhosa
TTITLE5=Amor à Três
TTITLE6=Linda, Linda
TTITLE7=Amante Amada
TTITLE8=À Dois Graus
TTITLE9=Te Amo de Coração
TTITLE10=Desencontro
TTITLE11=Faça da Dor
TTITLE12=Mulher de Ninguém
TTITLE13=Minha Amiga
TTITLE14=Papel de Homem
TTITLE15=Barra Pesada
TTITLE16=Ilusão Perdida
TTITLE17=Ponto Fraco
EXTD=
EXTT0=
EXTT1=
EXTT2=
EXTT3=
EXTT4=
EXTT5=
EXTT6=
EXTT7=
EXTT8=
EXTT9=
EXTT10=
EXTT11=
EXTT12=
EXTT13=
EXTT14=
EXTT15=
EXTT16=
EXTT17=
PLAYORDER=
